
      <svg data-logo="logo" xmlns="http://www.w3.org/2000/svg" viewBox="0 0 240 43">
        <g id="logogram" transform="translate(0, 1) rotate(0) "><path d="M20.9053 0.809967C9.85957 0.809967 0.905273 9.76427 0.905273 20.81C11.951 20.81 20.9053 11.8557 20.9053 0.809967Z" fill="#FBE4BB"/><path d="M20.9053 40.81C31.951 40.81 40.9053 31.8557 40.9053 20.81C29.8596 20.81 20.9053 29.7643 20.9053 40.81Z" fill="#D2C4E4"/><path d="M20.9053 0.809967C31.951 0.809967 40.9053 9.76427 40.9053 20.81C29.8596 20.81 20.9053 11.8557 20.9053 0.809967Z" fill="#B2D7EC"/><path d="M20.9053 40.81C9.85957 40.81 0.905272 31.8557 0.905273 20.81C11.951 20.81 20.9053 29.7643 20.9053 40.81Z" fill="#BFE3BC"/></g>
        <g id="logotype" transform="translate(47, 8.5)"><path fill="#000000" d="M13.14 26L8.41 26L8.41 1.50L14.05 1.50L21.54 16.80L21.54 16.80L28.96 1.50L34.59 1.50L34.59 26L29.87 26L29.87 9.55L29.87 9.55L23.40 22.57L19.65 22.57L13.14 9.55L13.14 9.55L13.14 26ZM42.30 26L37.57 26L37.57 8.36L42.30 8.36L42.30 26ZM39.95 5.94L39.95 5.94Q38.69 5.94 37.87 5.19Q37.05 4.44 37.05 3.28L37.05 3.28Q37.05 2.13 37.87 1.38Q38.69 0.62 39.95 0.62L39.95 0.62Q41.25 0.62 42.07 1.38Q42.89 2.13 42.89 3.28L42.89 3.28Q42.89 4.44 42.07 5.19Q41.25 5.94 39.95 5.94ZM49.93 26L45.20 26L45.20 8.36L49.37 8.36L49.72 11.23L49.72 11.23Q50.52 9.76 52.01 8.85Q53.50 7.94 55.56 7.94L55.56 7.94Q57.77 7.94 59.27 8.85Q60.78 9.76 61.56 11.51Q62.35 13.26 62.35 15.81L62.35 15.81L62.35 26L57.66 26L57.66 16.27Q57.66 14.17 56.77 13.05Q55.88 11.93 54.02 11.93L54.02 11.93Q52.83 11.93 51.90 12.49Q50.98 13.05 50.45 14.08Q49.93 15.11 49.93 16.59L49.93 16.59L49.93 26ZM72.78 26.42L72.78 26.42Q70.37 26.42 68.46 25.23Q66.55 24.04 65.47 21.94Q64.38 19.84 64.38 17.21L64.38 17.21Q64.38 14.52 65.48 12.44Q66.59 10.35 68.53 9.15Q70.47 7.94 72.89 7.94L72.89 7.94Q74.78 7.94 76.21 8.64Q77.65 9.34 78.52 10.63L78.52 10.63L78.52 0.80L83.25 0.80L83.25 26L79.05 26L78.52 23.59L78.52 23.59Q78.00 24.32 77.21 24.98Q76.42 25.65 75.34 26.04Q74.25 26.42 72.78 26.42ZM73.90 22.29L73.90 22.29Q75.30 22.29 76.37 21.64Q77.44 20.99 78.03 19.84Q78.63 18.68 78.63 17.18L78.63 17.18Q78.63 15.67 78.03 14.52Q77.44 13.36 76.37 12.72Q75.30 12.07 73.90 12.07L73.90 12.07Q72.57 12.07 71.49 12.72Q70.40 13.36 69.79 14.52Q69.18 15.67 69.18 17.14L69.18 17.14Q69.18 18.68 69.79 19.84Q70.40 20.99 71.47 21.64Q72.54 22.29 73.90 22.29ZM97.21 26L92.49 26L92.49 1.50L101.66 1.50Q104.63 1.50 106.59 2.51Q108.55 3.53 109.50 5.24Q110.44 6.96 110.44 9.16L110.44 9.16Q110.44 11.19 109.53 12.91Q108.62 14.62 106.66 15.69Q104.70 16.76 101.66 16.76L101.66 16.76L97.21 16.76L97.21 26ZM97.21 5.35L97.21 12.94L101.38 12.94Q103.65 12.94 104.65 11.91Q105.65 10.88 105.65 9.16L105.65 9.16Q105.65 7.34 104.65 6.35Q103.65 5.35 101.38 5.35L101.38 5.35L97.21 5.35ZM116.81 26.42L116.81 26.42Q114.61 26.42 113.17 25.70Q111.73 24.98 111.05 23.78Q110.37 22.57 110.37 21.10L110.37 21.10Q110.37 19.49 111.19 18.27Q112.02 17.04 113.68 16.34Q115.34 15.64 117.86 15.64L117.86 15.64L122.23 15.64Q122.23 14.34 121.88 13.49Q121.53 12.63 120.80 12.21Q120.06 11.79 118.84 11.79L118.84 11.79Q117.51 11.79 116.58 12.37Q115.66 12.94 115.44 14.13L115.44 14.13L110.86 14.13Q111.03 12.24 112.10 10.86Q113.17 9.48 114.94 8.71Q116.70 7.94 118.88 7.94L118.88 7.94Q121.36 7.94 123.18 8.78Q125 9.62 125.98 11.19Q126.96 12.77 126.96 15.08L126.96 15.08L126.96 26L122.97 26L122.44 23.30L122.44 23.30Q122.06 24.00 121.53 24.57Q121.01 25.13 120.31 25.55Q119.61 25.96 118.73 26.19Q117.86 26.42 116.81 26.42ZM117.93 22.78L117.93 22.78Q118.84 22.78 119.56 22.45Q120.28 22.11 120.80 21.54Q121.33 20.96 121.62 20.21Q121.92 19.45 122.03 18.58L122.03 18.58L122.03 18.54L118.42 18.54Q117.33 18.54 116.65 18.81Q115.97 19.07 115.66 19.56Q115.34 20.05 115.34 20.68L115.34 20.68Q115.34 21.38 115.66 21.84Q115.97 22.29 116.56 22.54Q117.16 22.78 117.93 22.78ZM134.24 26L129.51 26L129.51 0.80L134.24 0.80L134.24 26ZM142.96 26.42L142.96 26.42Q140.75 26.42 139.32 25.70Q137.88 24.98 137.20 23.78Q136.52 22.57 136.52 21.10L136.52 21.10Q136.52 19.49 137.34 18.27Q138.16 17.04 139.82 16.34Q141.49 15.64 144.01 15.64L144.01 15.64L148.38 15.64Q148.38 14.34 148.03 13.49Q147.68 12.63 146.95 12.21Q146.21 11.79 144.99 11.79L144.99 11.79Q143.66 11.79 142.73 12.37Q141.80 12.94 141.59 14.13L141.59 14.13L137.01 14.13Q137.18 12.24 138.25 10.86Q139.32 9.48 141.08 8.71Q142.85 7.94 145.02 7.94L145.02 7.94Q147.51 7.94 149.33 8.78Q151.15 9.62 152.13 11.19Q153.11 12.77 153.11 15.08L153.11 15.08L153.11 26L149.12 26L148.59 23.30L148.59 23.30Q148.21 24.00 147.68 24.57Q147.16 25.13 146.46 25.55Q145.76 25.96 144.88 26.19Q144.01 26.42 142.96 26.42ZM144.08 22.78L144.08 22.78Q144.99 22.78 145.70 22.45Q146.42 22.11 146.95 21.54Q147.47 20.96 147.77 20.21Q148.07 19.45 148.17 18.58L148.17 18.58L148.17 18.54L144.57 18.54Q143.48 18.54 142.80 18.81Q142.12 19.07 141.80 19.56Q141.49 20.05 141.49 20.68L141.49 20.68Q141.49 21.38 141.80 21.84Q142.12 22.29 142.71 22.54Q143.31 22.78 144.08 22.78ZM164.20 26.42L164.20 26.42Q161.54 26.42 159.48 25.23Q157.41 24.04 156.26 21.98Q155.10 19.91 155.10 17.25L155.10 17.25Q155.10 14.52 156.26 12.44Q157.41 10.35 159.48 9.15Q161.54 7.94 164.20 7.94L164.20 7.94Q167.60 7.94 169.91 9.72Q172.22 11.51 172.85 14.62L172.85 14.62L167.84 14.62Q167.53 13.40 166.53 12.70Q165.53 12.00 164.17 12.00L164.17 12.00Q162.94 12.00 161.98 12.61Q161.02 13.22 160.47 14.40Q159.93 15.57 159.93 17.18L159.93 17.18Q159.93 18.41 160.25 19.37Q160.56 20.33 161.12 21.01Q161.68 21.70 162.47 22.04Q163.26 22.39 164.17 22.39L164.17 22.39Q165.08 22.39 165.83 22.08Q166.58 21.77 167.11 21.19Q167.63 20.61 167.84 19.77L167.84 19.77L172.85 19.77Q172.22 22.81 169.89 24.62Q167.56 26.42 164.20 26.42ZM183.52 26.42L183.52 26.42Q180.86 26.42 178.81 25.28Q176.77 24.14 175.63 22.10Q174.49 20.05 174.49 17.35L174.49 17.35Q174.49 14.59 175.63 12.47Q176.77 10.35 178.80 9.15Q180.83 7.94 183.52 7.94L183.52 7.94Q186.15 7.94 188.11 9.09Q190.07 10.25 191.15 12.21Q192.24 14.17 192.24 16.66L192.24 16.66Q192.24 17.00 192.24 17.44Q192.24 17.88 192.17 18.34L192.17 18.34L177.85 18.34L177.85 15.46L187.48 15.46Q187.37 13.75 186.27 12.77Q185.17 11.79 183.52 11.79L183.52 11.79Q182.33 11.79 181.32 12.33Q180.30 12.87 179.72 13.99Q179.15 15.11 179.15 16.83L179.15 16.83L179.15 17.84Q179.15 19.28 179.69 20.35Q180.23 21.41 181.21 21.99Q182.19 22.57 183.49 22.57L183.49 22.57Q184.78 22.57 185.64 22.01Q186.50 21.45 186.92 20.57L186.92 20.57L191.75 20.57Q191.26 22.22 190.10 23.55Q188.95 24.88 187.27 25.65Q185.59 26.42 183.52 26.42Z"/></g>
        
      </svg>
    